<svg width="187" height="504" viewBox="0 0 187 504" fill="none" xmlns="http://www.w3.org/2000/svg">
<path fill-rule="evenodd" clip-rule="evenodd" d="M7.60487 1.06272C-18.6777 -7.44395 -37.8691 37.3819 -61.4548 54.9425C-83.5834 71.4186 -108.409 78.7138 -127.787 101.871C-175.339 158.696 -182.943 251.54 -173.417 306.812C-163.957 361.694 -110.631 420.273 -69.6684 457.373C-46.0097 478.798 -21.0497 503.306 7.60487 503.96C108.177 506.255 76.9452 409.106 110.92 353.978C129.26 324.216 178.28 335.814 186.079 298.812C193.679 262.75 152.038 239.338 142.511 204.087C134.404 174.084 151.91 133.012 135.11 110.202C117.694 86.5546 83.0713 112.87 62.1229 94.9385C36.7708 73.238 36.9284 10.5531 7.60487 1.06272Z" fill="#0F0F0F"/>
</svg>
