<svg width="116" height="49" viewBox="0 0 116 49" fill="none" xmlns="http://www.w3.org/2000/svg">
<path d="M11.8777 24.5521C11.8777 10.7794 19.5987 0 34.8339 0C46.9561 0 54.8088 7.84303 55.8245 17.2585H44.9906C44.2477 13.3748 41.4734 9.69012 34.8339 9.69012C26.9812 9.69012 22.7116 14.9378 22.7116 24.5616C22.7116 34.1854 26.9812 39.3667 34.8339 39.3667C41.2006 39.3667 44.1066 35.8904 45.0564 32.0731H36.1881V22.5913H56.1631V27.9811C56.1631 40.7402 47.2289 48.9905 34.8339 48.9905C19.5987 48.9905 11.8777 38.1448 11.8777 24.571V24.5521Z" fill="#0F0F0F"/>
<path d="M60.2164 24.5521C60.2164 10.7794 67.9375 0 83.1726 0C95.2949 0 103.148 7.84303 104.163 17.2585H93.3294C92.5864 13.3748 89.8121 9.69012 83.1726 9.69012C75.3199 9.69012 71.0503 14.9378 71.0503 24.5616C71.0503 34.1854 75.3199 39.3667 83.1726 39.3667C89.5394 39.3667 92.4454 35.8904 93.3952 32.0731H4.70221C2.10659 32.0731 0 29.9513 0 27.3369C0 24.7226 2.10659 22.6008 4.70221 22.6008H104.502V27.9905C104.502 40.7497 95.5676 49 83.1726 49C67.9375 49 60.2164 38.1543 60.2164 24.5805V24.5521Z" fill="#0F0F0F"/>
<path d="M74.7086 32.054V22.5723H110.972C113.568 22.5723 115.674 24.6941 115.674 27.3084C115.674 29.9227 113.568 32.0445 110.972 32.0445H74.7086V32.054Z" fill="#0F0F0F"/>
</svg>
